<svg width="56" height="56" viewBox="0 0 56 56" fill="none" xmlns="http://www.w3.org/2000/svg">
<g filter="url(#filter0_dd_663_25834)">
<rect x="4" y="2" width="48" height="48" rx="10" fill="white"/>
</g>
<path fill-rule="evenodd" clip-rule="evenodd" d="M22.6663 19.3333C22.6663 22.2789 25.0542 24.6667 27.9997 24.6667C30.9452 24.6667 33.333 22.2789 33.333 19.3333C33.333 16.3878 30.9452 14 27.9997 14C25.0542 14 22.6663 16.3878 22.6663 19.3333ZM25.333 19.3333C25.333 20.8061 26.5269 22 27.9997 22C29.4724 22 30.6663 20.8061 30.6663 19.3333C30.6663 17.8606 29.4724 16.6667 27.9997 16.6667C26.5269 16.6667 25.333 17.8606 25.333 19.3333Z" fill="#414141"/>
<path d="M21.333 30C21.333 29.2636 21.93 28.6667 22.6663 28.6667H33.333C34.0694 28.6667 34.6663 29.2636 34.6663 30V38H37.333V30C37.333 27.7909 35.5421 26 33.333 26H22.6663C20.4572 26 18.6663 27.7909 18.6663 30V38H21.333V30Z" fill="#414141"/>
<defs>
<filter id="filter0_dd_663_25834" x="0" y="0" width="56" height="56" filterUnits="userSpaceOnUse" color-interpolation-filters="sRGB">
<feFlood flood-opacity="0" result="BackgroundImageFix"/>
<feColorMatrix in="SourceAlpha" type="matrix" values="0 0 0 0 0 0 0 0 0 0 0 0 0 0 0 0 0 0 127 0" result="hardAlpha"/>
<feOffset dy="2"/>
<feGaussianBlur stdDeviation="2"/>
<feColorMatrix type="matrix" values="0 0 0 0 0.380392 0 0 0 0 0.380392 0 0 0 0 0.380392 0 0 0 0.2 0"/>
<feBlend mode="multiply" in2="BackgroundImageFix" result="effect1_dropShadow_663_25834"/>
<feColorMatrix in="SourceAlpha" type="matrix" values="0 0 0 0 0 0 0 0 0 0 0 0 0 0 0 0 0 0 127 0" result="hardAlpha"/>
<feOffset dy="1"/>
<feGaussianBlur stdDeviation="1"/>
<feColorMatrix type="matrix" values="0 0 0 0 0.380392 0 0 0 0 0.380392 0 0 0 0 0.380392 0 0 0 0.2 0"/>
<feBlend mode="multiply" in2="effect1_dropShadow_663_25834" result="effect2_dropShadow_663_25834"/>
<feBlend mode="normal" in="SourceGraphic" in2="effect2_dropShadow_663_25834" result="shape"/>
</filter>
</defs>
</svg>
