<svg width="56" height="24" viewBox="0 0 56 24" fill="none" xmlns="http://www.w3.org/2000/svg">
<rect width="56" height="24" rx="4" fill="#1F8B24"/>
<rect x="6" width="44" height="24" rx="4" fill="#1F8B24"/>
<path d="M6.44875 17L9.62675 6.92H12.0978L15.2758 17H13.5398L10.6558 7.956H11.0338L8.18475 17H6.44875ZM8.21975 14.816V13.241H13.5118V14.816H8.21975ZM19.8943 17.21C19.115 17.21 18.45 17.0373 17.8993 16.692C17.3487 16.342 16.9263 15.866 16.6323 15.264C16.343 14.662 16.196 13.9807 16.1913 13.22C16.196 12.4453 16.3477 11.7593 16.6463 11.162C16.9497 10.56 17.379 10.0887 17.9343 9.748C18.4897 9.40267 19.15 9.23 19.9153 9.23C20.774 9.23 21.4997 9.447 22.0923 9.881C22.6897 10.3103 23.0793 10.8983 23.2613 11.645L21.5813 12.1C21.4507 11.694 21.2337 11.379 20.9303 11.155C20.627 10.9263 20.2817 10.812 19.8943 10.812C19.4557 10.812 19.094 10.917 18.8093 11.127C18.5247 11.3323 18.3147 11.617 18.1793 11.981C18.044 12.345 17.9763 12.758 17.9763 13.22C17.9763 13.9387 18.1373 14.5197 18.4593 14.963C18.7813 15.4063 19.2597 15.628 19.8943 15.628C20.3423 15.628 20.6947 15.5253 20.9513 15.32C21.2127 15.1147 21.4087 14.8183 21.5393 14.431L23.2613 14.816C23.028 15.586 22.6197 16.1787 22.0363 16.594C21.453 17.0047 20.739 17.21 19.8943 17.21ZM29.1651 17C28.6657 17.0933 28.1757 17.133 27.6951 17.119C27.2191 17.1097 26.7921 17.0233 26.4141 16.86C26.0361 16.692 25.7491 16.4283 25.5531 16.069C25.3804 15.7423 25.2894 15.4087 25.2801 15.068C25.2707 14.7273 25.2661 14.3423 25.2661 13.913V7.34H26.9461V13.815C26.9461 14.1183 26.9484 14.3843 26.9531 14.613C26.9624 14.8417 27.0114 15.0283 27.1001 15.173C27.2681 15.453 27.5364 15.6093 27.9051 15.642C28.2737 15.6747 28.6937 15.656 29.1651 15.586V17ZM23.8941 10.763V9.44H29.1651V10.763H23.8941ZM31.0007 8.292V6.745H32.6877V8.292H31.0007ZM31.0007 17V9.44H32.6877V17H31.0007ZM36.8985 17L34.1545 9.44H35.8415L37.7455 14.921L39.6425 9.44H41.3365L38.5925 17H36.8985ZM45.8264 17.21C45.061 17.21 44.389 17.0443 43.8104 16.713C43.2317 16.3817 42.779 15.922 42.4524 15.334C42.1304 14.746 41.9694 14.0693 41.9694 13.304C41.9694 12.478 42.128 11.7617 42.4454 11.155C42.7627 10.5437 43.2037 10.07 43.7684 9.734C44.333 9.398 44.9864 9.23 45.7284 9.23C46.5124 9.23 47.1774 9.41433 47.7234 9.783C48.274 10.147 48.6824 10.6627 48.9484 11.33C49.2144 11.9973 49.3147 12.7837 49.2494 13.689H47.5764V13.073C47.5717 12.2517 47.427 11.652 47.1424 11.274C46.8577 10.896 46.4097 10.707 45.7984 10.707C45.1077 10.707 44.5944 10.9217 44.2584 11.351C43.9224 11.7757 43.7544 12.3987 43.7544 13.22C43.7544 13.9853 43.9224 14.578 44.2584 14.998C44.5944 15.418 45.0844 15.628 45.7284 15.628C46.1437 15.628 46.5007 15.537 46.7994 15.355C47.1027 15.1683 47.336 14.9 47.4994 14.55L49.1654 15.054C48.876 15.7353 48.428 16.265 47.8214 16.643C47.2194 17.021 46.5544 17.21 45.8264 17.21ZM43.2224 13.689V12.415H48.4234V13.689H43.2224Z" fill="white"/>
</svg>
