<svg width="21" height="22" viewBox="0 0 21 22" fill="none" xmlns="http://www.w3.org/2000/svg">
<path d="M2.57892 1.1652C2.0504 0.636667 1.19348 0.636667 0.664951 1.1652C0.136422 1.69372 0.136422 2.55064 0.664951 3.07917L8.48038 10.8946L0.665032 18.7099C0.136504 19.2385 0.136503 20.0954 0.665032 20.6239C1.19356 21.1525 2.05048 21.1525 2.57901 20.6239L10.3944 12.8086L18.2097 20.6239C18.7382 21.1525 19.5951 21.1525 20.1237 20.6239C20.6522 20.0954 20.6522 19.2385 20.1237 18.7099L12.3083 10.8946L20.1238 3.07917C20.6523 2.55064 20.6523 1.69372 20.1238 1.1652C19.5952 0.636667 18.7383 0.636667 18.2098 1.1652L10.3944 8.98063L2.57892 1.1652Z" fill="white"/>
</svg>
