<svg width="32" height="24" viewBox="0 0 32 24" fill="none" xmlns="http://www.w3.org/2000/svg">
<path d="M5.33333 8C5.33333 7.26362 5.93029 6.66667 6.66667 6.66667H12C12.7364 6.66667 13.3333 7.26362 13.3333 8C13.3333 8.73638 12.7364 9.33333 12 9.33333H6.66667C5.93029 9.33333 5.33333 8.73638 5.33333 8Z" fill="#414141"/>
<path fill-rule="evenodd" clip-rule="evenodd" d="M5.33333 0C2.38781 0 0 2.38781 0 5.33333V18.6667C0 21.6122 2.38782 24 5.33333 24H26.6667C29.6122 24 32 21.6122 32 18.6667V5.33333C32 2.38781 29.6122 0 26.6667 0H5.33333ZM26.6667 2.66667H5.33333C3.86057 2.66667 2.66667 3.86057 2.66667 5.33333V14.6667H29.3333V5.33333C29.3333 3.86057 28.1394 2.66667 26.6667 2.66667ZM29.3333 17.3333H2.66667V18.6667C2.66667 20.1394 3.86057 21.3333 5.33333 21.3333H26.6667C28.1394 21.3333 29.3333 20.1394 29.3333 18.6667V17.3333Z" fill="#414141"/>
</svg>
