<svg width="47" height="24" viewBox="0 0 47 24" fill="none" xmlns="http://www.w3.org/2000/svg">
<rect width="47" height="24" rx="4" fill="#616161"/>
<rect x="6" width="35" height="24" rx="4" fill="#616161"/>
<path d="M7.02457 17V6.92H10.2376C10.3216 6.92 10.4872 6.92233 10.7346 6.927C10.9866 6.93167 11.2292 6.948 11.4626 6.976C12.2606 7.07867 12.9349 7.36333 13.4856 7.83C14.0409 8.292 14.4609 8.88233 14.7456 9.601C15.0302 10.3197 15.1726 11.106 15.1726 11.96C15.1726 12.814 15.0302 13.6003 14.7456 14.319C14.4609 15.0377 14.0409 15.6303 13.4856 16.097C12.9349 16.559 12.2606 16.8413 11.4626 16.944C11.2339 16.972 10.9936 16.9883 10.7416 16.993C10.4896 16.9977 10.3216 17 10.2376 17H7.02457ZM8.73957 15.411H10.2376C10.3776 15.411 10.5549 15.4063 10.7696 15.397C10.9889 15.3877 11.1826 15.3667 11.3506 15.334C11.8266 15.2453 12.2139 15.033 12.5126 14.697C12.8112 14.361 13.0306 13.9527 13.1706 13.472C13.3152 12.9913 13.3876 12.4873 13.3876 11.96C13.3876 11.414 13.3152 10.9007 13.1706 10.42C13.0259 9.93933 12.8019 9.53567 12.4986 9.209C12.1999 8.88233 11.8172 8.67467 11.3506 8.586C11.1826 8.54867 10.9889 8.52767 10.7696 8.523C10.5549 8.51367 10.3776 8.509 10.2376 8.509H8.73957V15.411ZM16.8973 17V9.44H18.3883V11.281L18.2063 11.043C18.2996 10.791 18.4233 10.5623 18.5773 10.357C18.736 10.147 18.925 9.97433 19.1443 9.839C19.331 9.713 19.5363 9.615 19.7603 9.545C19.989 9.47033 20.2223 9.426 20.4603 9.412C20.6983 9.39333 20.9293 9.40267 21.1533 9.44V11.015C20.9293 10.9497 20.6703 10.9287 20.3763 10.952C20.087 10.9753 19.8256 11.057 19.5923 11.197C19.359 11.323 19.1676 11.484 19.0183 11.68C18.8736 11.876 18.7663 12.1 18.6963 12.352C18.6263 12.5993 18.5913 12.8677 18.5913 13.157V17H16.8973ZM24.4954 17.21C23.9494 17.21 23.4874 17.1073 23.1094 16.902C22.7314 16.692 22.4444 16.4143 22.2484 16.069C22.057 15.7237 21.9614 15.3433 21.9614 14.928C21.9614 14.564 22.022 14.2373 22.1434 13.948C22.2647 13.654 22.4514 13.402 22.7034 13.192C22.9554 12.9773 23.282 12.8023 23.6834 12.667C23.9867 12.569 24.3414 12.4803 24.7474 12.401C25.158 12.3217 25.6014 12.2493 26.0774 12.184C26.558 12.114 27.0597 12.0393 27.5824 11.96L26.9804 12.303C26.985 11.7803 26.8684 11.3953 26.6304 11.148C26.3924 10.9007 25.991 10.777 25.4264 10.777C25.0857 10.777 24.7567 10.8563 24.4394 11.015C24.122 11.1737 23.9004 11.4467 23.7744 11.834L22.2344 11.351C22.421 10.7117 22.7757 10.1983 23.2984 9.811C23.8257 9.42367 24.535 9.23 25.4264 9.23C26.0984 9.23 26.6887 9.33967 27.1974 9.559C27.7107 9.77833 28.091 10.1377 28.3384 10.637C28.4737 10.903 28.5554 11.176 28.5834 11.456C28.6114 11.7313 28.6254 12.0323 28.6254 12.359V17H27.1484V15.362L27.3934 15.628C27.0527 16.174 26.6537 16.5753 26.1964 16.832C25.7437 17.084 25.1767 17.21 24.4954 17.21ZM24.8314 15.866C25.214 15.866 25.5407 15.7983 25.8114 15.663C26.082 15.5277 26.2967 15.362 26.4554 15.166C26.6187 14.97 26.7284 14.7857 26.7844 14.613C26.873 14.3983 26.922 14.1533 26.9314 13.878C26.9454 13.598 26.9524 13.3717 26.9524 13.199L27.4704 13.353C26.9617 13.4323 26.5254 13.5023 26.1614 13.563C25.7974 13.6237 25.4847 13.682 25.2234 13.738C24.962 13.7893 24.731 13.8477 24.5304 13.913C24.3344 13.983 24.1687 14.0647 24.0334 14.158C23.898 14.2513 23.793 14.3587 23.7184 14.48C23.6484 14.6013 23.6134 14.7437 23.6134 14.907C23.6134 15.0937 23.66 15.2593 23.7534 15.404C23.8467 15.544 23.982 15.656 24.1594 15.74C24.3414 15.824 24.5654 15.866 24.8314 15.866ZM31.1758 17V9.321C31.1758 9.12967 31.1828 8.91967 31.1968 8.691C31.2108 8.45767 31.2504 8.22667 31.3158 7.998C31.3811 7.76933 31.5001 7.56167 31.6728 7.375C31.8874 7.137 32.1184 6.97367 32.3658 6.885C32.6178 6.79167 32.8651 6.74033 33.1078 6.731C33.3504 6.717 33.5628 6.71 33.7448 6.71H34.6898V8.082H33.8148C33.4928 8.082 33.2524 8.16367 33.0938 8.327C32.9398 8.48567 32.8628 8.69567 32.8628 8.957V17H31.1758ZM29.9578 10.763V9.44H34.6898V10.763H29.9578ZM40.3098 17C39.8105 17.0933 39.3205 17.133 38.8398 17.119C38.3638 17.1097 37.9368 17.0233 37.5588 16.86C37.1808 16.692 36.8938 16.4283 36.6978 16.069C36.5251 15.7423 36.4341 15.4087 36.4248 15.068C36.4155 14.7273 36.4108 14.3423 36.4108 13.913V7.34H38.0908V13.815C38.0908 14.1183 38.0931 14.3843 38.0978 14.613C38.1071 14.8417 38.1561 15.0283 38.2448 15.173C38.4128 15.453 38.6811 15.6093 39.0498 15.642C39.4185 15.6747 39.8385 15.656 40.3098 15.586V17ZM35.0388 10.763V9.44H40.3098V10.763H35.0388Z" fill="#E0E0E0"/>
</svg>
