<svg width="32" height="24" viewBox="0 0 32 24" fill="none" xmlns="http://www.w3.org/2000/svg">
<path d="M21.3333 5.33333C20.597 5.33333 20 5.93029 20 6.66667C20 7.40305 20.597 8 21.3333 8H25.3333C26.0697 8 26.6667 7.40305 26.6667 6.66667C26.6667 5.93029 26.0697 5.33333 25.3333 5.33333H21.3333Z" fill="#414141"/>
<path d="M20 12C20 11.2636 20.597 10.6667 21.3333 10.6667H25.3333C26.0697 10.6667 26.6667 11.2636 26.6667 12C26.6667 12.7364 26.0697 13.3333 25.3333 13.3333H21.3333C20.597 13.3333 20 12.7364 20 12Z" fill="#414141"/>
<path d="M21.3333 16C20.597 16 20 16.597 20 17.3333C20 18.0697 20.597 18.6667 21.3333 18.6667H25.3333C26.0697 18.6667 26.6667 18.0697 26.6667 17.3333C26.6667 16.597 26.0697 16 25.3333 16H21.3333Z" fill="#414141"/>
<path fill-rule="evenodd" clip-rule="evenodd" d="M4 0C1.79086 0 0 1.79086 0 4V20C0 22.2091 1.79086 24 4 24H28C30.2091 24 32 22.2091 32 20V4C32 1.79086 30.2091 0 28 0H4ZM28 2.66667H17.3333V21.3333H28C28.7364 21.3333 29.3333 20.7364 29.3333 20V4C29.3333 3.26362 28.7364 2.66667 28 2.66667ZM4 2.66667H14.6667V21.3333H4C3.26362 21.3333 2.66667 20.7364 2.66667 20V4C2.66667 3.26362 3.26362 2.66667 4 2.66667Z" fill="#414141"/>
</svg>
