<svg width="121" height="120" viewBox="0 0 121 120" fill="none" xmlns="http://www.w3.org/2000/svg">
<rect x="17.5" y="17" width="86" height="86" rx="43" fill="#E6E6E6" fill-opacity="0.5" stroke="#C0C0C0" stroke-width="2"/>
<path d="M52.6053 85L74.9737 62.6316L63.1316 54.7368L68.3948 35L46.0264 57.3684L57.8685 65.2632L52.6053 85Z" fill="#818181"/>
<rect x="79.4473" y="78.9473" width="37.8947" height="37.8947" rx="18.9474" fill="#DA100B"/>
<path d="M90.5789 88.1652C90.0504 87.6367 89.1935 87.6367 88.665 88.1652C88.1364 88.6937 88.1364 89.5506 88.665 90.0792L96.4804 97.8946L88.665 105.71C88.1365 106.238 88.1365 107.095 88.665 107.624C89.1936 108.152 90.0505 108.152 90.579 107.624L98.3944 99.8086L106.21 107.624C106.738 108.152 107.595 108.152 108.124 107.624C108.652 107.095 108.652 106.238 108.124 105.71L100.308 97.8946L108.124 90.0792C108.652 89.5506 108.652 88.6937 108.124 88.1652C107.595 87.6367 106.738 87.6367 106.21 88.1652L98.3944 95.9806L90.5789 88.1652Z" fill="white"/>
</svg>
