<svg width="32" height="32" viewBox="0 0 32 32" fill="none" xmlns="http://www.w3.org/2000/svg">
<rect width="32" height="32" rx="16" fill="white"/>
<path d="M17.3332 12C17.3332 12.7364 16.7362 13.3333 15.9998 13.3333C15.2635 13.3333 14.6665 12.7364 14.6665 12C14.6665 11.2636 15.2635 10.6667 15.9998 10.6667C16.7362 10.6667 17.3332 11.2636 17.3332 12Z" fill="black"/>
<path d="M17.3332 16C17.3332 16.7364 16.7362 17.3333 15.9998 17.3333C15.2635 17.3333 14.6665 16.7364 14.6665 16C14.6665 15.2636 15.2635 14.6667 15.9998 14.6667C16.7362 14.6667 17.3332 15.2636 17.3332 16Z" fill="black"/>
<path d="M17.3332 20C17.3332 20.7364 16.7362 21.3333 15.9998 21.3333C15.2635 21.3333 14.6665 20.7364 14.6665 20C14.6665 19.2636 15.2635 18.6667 15.9998 18.6667C16.7362 18.6667 17.3332 19.2636 17.3332 20Z" fill="black"/>
</svg>
