<svg width="32" height="32" viewBox="0 0 32 32" fill="none" xmlns="http://www.w3.org/2000/svg">
<rect width="32" height="32" rx="16" fill="white"/>
<rect x="8" y="8" width="16" height="16" rx="8" fill="#7B61FF"/>
<path d="M14.3336 16C14.3336 15.0796 15.0796 14.3332 16 14.3332C16.9204 14.3332 17.6668 15.0796 17.6668 16C17.6668 16.9204 16.9204 17.6668 16 17.6668C15.0796 17.6668 14.3336 16.9204 14.3336 16ZM13.4326 16C13.4326 17.418 14.582 18.5674 16 18.5674C17.418 18.5674 18.5674 17.418 18.5674 16C18.5674 14.582 17.418 13.4326 16 13.4326C14.582 13.4326 13.4326 14.582 13.4326 16ZM18.0691 13.3308C18.069 13.4494 18.1042 13.5654 18.1701 13.6641C18.236 13.7628 18.3296 13.8398 18.4392 13.8852C18.5489 13.9307 18.6695 13.9426 18.7859 13.9195C18.9023 13.8964 19.0092 13.8393 19.0932 13.7554C19.1771 13.6716 19.2343 13.5647 19.2575 13.4483C19.2807 13.3319 19.2689 13.2113 19.2235 13.1016C19.1781 12.992 19.1013 12.8982 19.0026 12.8323C18.904 12.7663 18.788 12.731 18.6693 12.731H18.6691C18.51 12.7311 18.3575 12.7943 18.245 12.9067C18.1325 13.0192 18.0692 13.1717 18.0691 13.3308ZM13.98 20.0699C13.4925 20.0477 13.2276 19.9665 13.0515 19.8979C12.818 19.807 12.6515 19.6988 12.4764 19.5239C12.3012 19.349 12.1928 19.1826 12.1024 18.9492C12.0337 18.7732 11.9525 18.5081 11.9304 18.0206C11.9061 17.4936 11.9013 17.3353 11.9013 16C11.9013 14.6648 11.9065 14.5069 11.9304 13.9794C11.9526 13.492 12.0344 13.2274 12.1024 13.0509C12.1932 12.8175 12.3015 12.6509 12.4764 12.4758C12.6512 12.3007 12.8176 12.1923 13.0515 12.1018C13.2275 12.0332 13.4925 11.952 13.98 11.9298C14.507 11.9056 14.6654 11.9007 16 11.9007C17.3346 11.9007 17.4931 11.906 18.0206 11.9298C18.5081 11.952 18.7726 12.0338 18.9491 12.1018C19.1826 12.1923 19.3491 12.3009 19.5242 12.4758C19.6994 12.6507 19.8074 12.8175 19.8982 13.0509C19.9669 13.2269 20.0481 13.492 20.0702 13.9794C20.0945 14.5069 20.0993 14.6648 20.0993 16C20.0993 17.3353 20.0945 17.4932 20.0702 18.0206C20.048 18.5081 19.9664 18.7731 19.8982 18.9492C19.8074 19.1826 19.6991 19.3492 19.5242 19.5239C19.3494 19.6986 19.1826 19.807 18.9491 19.8979C18.7731 19.9665 18.5081 20.0477 18.0206 20.0699C17.4936 20.0941 17.3352 20.099 16 20.099C14.6648 20.099 14.5069 20.0941 13.98 20.0699ZM13.9386 11.0303C13.4063 11.0545 13.0426 11.1389 12.725 11.2625C12.396 11.3902 12.1175 11.5614 11.8392 11.8392C11.561 12.1171 11.3902 12.396 11.2625 12.725C11.1389 13.0428 11.0545 13.4063 11.0303 13.9386C11.0056 14.4717 11 14.6422 11 16C11 17.3578 11.0056 17.5283 11.0303 18.0614C11.0545 18.5937 11.1389 18.9572 11.2625 19.275C11.3902 19.6038 11.561 19.883 11.8392 20.1608C12.1175 20.4385 12.396 20.6095 12.725 20.7375C13.0432 20.8611 13.4063 20.9455 13.9386 20.9697C14.472 20.994 14.6422 21 16 21C17.3578 21 17.5283 20.9944 18.0614 20.9697C18.5937 20.9455 18.9572 20.8611 19.275 20.7375C19.6038 20.6095 19.8825 20.4386 20.1608 20.1608C20.439 19.8829 20.6095 19.6038 20.7375 19.275C20.8611 18.9572 20.9459 18.5937 20.9697 18.0614C20.994 17.5279 20.9996 17.3578 20.9996 16C20.9996 14.6422 20.994 14.4717 20.9697 13.9386C20.9455 13.4063 20.8611 13.0426 20.7375 12.725C20.6095 12.3962 20.4386 12.1175 20.1608 11.8392C19.8829 11.561 19.6038 11.3902 19.2754 11.2625C18.9572 11.1389 18.5937 11.0541 18.0618 11.0303C17.5287 11.006 17.3582 11 16.0004 11C14.6426 11 14.472 11.0056 13.9386 11.0303Z" fill="white"/>
</svg>
