<svg width="29" height="29" viewBox="0 0 29 29" fill="none" xmlns="http://www.w3.org/2000/svg">
<path fill-rule="evenodd" clip-rule="evenodd" d="M26.2866 0.788667C25.7659 0.267968 24.9217 0.267968 24.401 0.788667L24.3807 0.808973C24.2608 0.92882 24.079 0.958196 23.9213 0.896197C22.4851 0.331804 20.7884 0.630009 19.6276 1.79081L5.0347 16.3838C4.87849 16.54 4.87849 16.7932 5.0347 16.9495L12.0115 23.9262C12.1677 24.0824 12.421 24.0824 12.5772 23.9262L27.17 9.33328C28.3308 8.1725 28.629 6.47578 28.0647 5.03963C28.0027 4.88183 28.0321 4.70003 28.152 4.58016L28.1722 4.5599C28.6929 4.0392 28.6929 3.19498 28.1722 2.67428L26.2866 0.788667ZM25.6998 6.46656C25.856 6.62277 25.856 6.87603 25.6998 7.03224L12.5772 20.155C12.421 20.3112 12.1677 20.3112 12.0115 20.155L8.80594 16.9495C8.64973 16.7932 8.64973 16.54 8.80594 16.3838L21.9286 3.26101C22.0848 3.1048 22.3381 3.1048 22.4943 3.26101L25.6998 6.46656Z" fill="#414141"/>
<path d="M1.00886 28.4161C0.710252 28.4975 0.43626 28.2235 0.517709 27.9249L2.98105 18.8939C3.06187 18.5976 3.43265 18.4991 3.64982 18.7163L10.2171 25.2845C10.4342 25.5016 10.3358 25.8724 10.0395 25.9532L1.00886 28.4161Z" fill="#414141"/>
</svg>
