<svg width="24" height="16" viewBox="0 0 24 16" fill="none" xmlns="http://www.w3.org/2000/svg">
<path fill-rule="evenodd" clip-rule="evenodd" d="M16.5 2C19.8137 2 22.5 4.68629 22.5 8C22.5 11.3137 19.8137 14 16.5 14H12.0007C13.822 12.6317 15 10.4534 15 8C15 5.5466 13.822 3.36834 12.0007 2H16.5ZM7.5 14C4.18629 14 1.5 11.3137 1.5 8C1.5 4.68629 4.18629 2 7.5 2C10.8137 2 13.5 4.68629 13.5 8C13.5 11.3137 10.8137 14 7.5 14ZM0 8C0 12.1421 3.35786 15.5 7.5 15.5H16.5C20.6421 15.5 24 12.1421 24 8C24 3.85786 20.6421 0.5 16.5 0.5H7.5C3.35787 0.5 0 3.85786 0 8Z" fill="#616161"/>
</svg>
