<svg width="14" height="16" viewBox="0 0 14 16" fill="none" xmlns="http://www.w3.org/2000/svg">
<path d="M13.6606 0.46785H11.6606V3.02494C10.4706 2.08985 8.97005 1.53215 7.3392 1.53215C3.47321 1.53215 0.339201 4.66616 0.339201 8.53215C0.339201 12.3981 3.47321 15.5322 7.3392 15.5322C9.48969 15.5322 11.4137 14.5624 12.6978 13.0364L11.0784 11.8516C10.1625 12.8826 8.82673 13.5322 7.3392 13.5322C4.57778 13.5322 2.3392 11.2936 2.3392 8.53215C2.3392 5.77073 4.57778 3.53215 7.3392 3.53215C8.42604 3.53215 9.43189 3.87892 10.2521 4.46785L7.66064 4.46785V6.46785H13.6606V0.46785Z" fill="#616161"/>
</svg>
